<?xml version="1.0" encoding="UTF-8" standalone="no"?>
<!DOCTYPE svg PUBLIC "-//W3C//DTD SVG 1.1//EN"
 "http://www.w3.org/Graphics/SVG/1.1/DTD/svg11.dtd">
<!-- Generated by graphviz version 2.40.1 (20161225.0304)
 -->
<!-- Title: dependencies Pages: 1 -->
<svg width="4222pt" height="284pt"
 viewBox="0.00 0.00 4222.00 284.00" xmlns="http://www.w3.org/2000/svg" xmlns:xlink="http://www.w3.org/1999/xlink">
<g id="graph0" class="graph" transform="scale(1 1) rotate(0) translate(4 280)">
<title>dependencies</title>
<polygon fill="#ffffff" stroke="transparent" points="-4,4 -4,-280 4218,-280 4218,4 -4,4"/>
<text text-anchor="start" x="2086.0091" y="-42.4" font-family="sans-serif" font-weight="bold" font-size="14.00" fill="#000000">Legend</text>
<polygon fill="#ffffb3" stroke="transparent" points="1873,-10 1873,-30 1893,-30 1893,-10 1873,-10"/>
<text text-anchor="start" x="1896.629" y="-15.4" font-family="sans-serif" font-size="14.00" fill="#000000"> &#160;Declarations</text>
<polygon fill="#8dd3c7" stroke="transparent" points="1986,-10 1986,-30 2006,-30 2006,-10 1986,-10"/>
<text text-anchor="start" x="2009.7251" y="-15.4" font-family="sans-serif" font-size="14.00" fill="#000000"> &#160;Module</text>
<polygon fill="#80b1d3" stroke="transparent" points="2072,-10 2072,-30 2092,-30 2092,-10 2072,-10"/>
<text text-anchor="start" x="2095.7812" y="-15.4" font-family="sans-serif" font-size="14.00" fill="#000000"> &#160;Bootstrap</text>
<polygon fill="#fdb462" stroke="transparent" points="2169,-10 2169,-30 2189,-30 2189,-10 2169,-10"/>
<text text-anchor="start" x="2192.6732" y="-15.4" font-family="sans-serif" font-size="14.00" fill="#000000"> &#160;Providers</text>
<polygon fill="#fb8072" stroke="transparent" points="2265,-10 2265,-30 2285,-30 2285,-10 2265,-10"/>
<text text-anchor="start" x="2288.7258" y="-15.4" font-family="sans-serif" font-size="14.00" fill="#000000"> &#160;Exports</text>
<g id="clust1" class="cluster">
<title>cluster_AppModule</title>
<polygon fill="none" stroke="#000000" stroke-dasharray="1,5" points="8,-70 8,-268 4206,-268 4206,-70 8,-70"/>
</g>
<g id="clust2" class="cluster">
<title>cluster_AppModule_declarations</title>
<polygon fill="none" stroke="#000000" points="1806,-78 1806,-130 4198,-130 4198,-78 1806,-78"/>
</g>
<g id="clust17" class="cluster">
<title>cluster_AppModule_imports</title>
<polygon fill="none" stroke="#000000" points="707,-78 707,-130 1798,-130 1798,-78 707,-78"/>
</g>
<g id="clust19" class="cluster">
<title>cluster_AppModule_bootstrap</title>
<polygon fill="none" stroke="#000000" points="1897,-208 1897,-260 2021,-260 2021,-208 1897,-208"/>
</g>
<g id="clust20" class="cluster">
<title>cluster_AppModule_providers</title>
<polygon fill="none" stroke="#000000" points="16,-78 16,-130 699,-130 699,-78 16,-78"/>
</g>
<!-- AppComponent -->
<g id="node1" class="node">
<title>AppComponent</title>
<polygon fill="#ffffb3" stroke="#000000" points="4189.9399,-122 4084.0601,-122 4084.0601,-86 4189.9399,-86 4189.9399,-122"/>
<text text-anchor="middle" x="4137" y="-99.8" font-family="Times,serif" font-size="14.00" fill="#000000">AppComponent</text>
</g>
<!-- AppModule -->
<g id="node15" class="node">
<title>AppModule</title>
<polygon fill="#8dd3c7" stroke="#000000" points="2000.6571,-187 1997.6571,-191 1976.6571,-191 1973.6571,-187 1917.3429,-187 1917.3429,-151 2000.6571,-151 2000.6571,-187"/>
<text text-anchor="middle" x="1959" y="-164.8" font-family="Times,serif" font-size="14.00" fill="#000000">AppModule</text>
</g>
<!-- AppComponent&#45;&gt;AppModule -->
<g id="edge1" class="edge">
<title>AppComponent&#45;&gt;AppModule</title>
<path fill="none" stroke="#000000" d="M4137,-122.3802C4137,-146.2785 4137,-185 4137,-185 4137,-185 2011.0454,-185 2011.0454,-185"/>
<polygon fill="#000000" stroke="#000000" points="2011.0454,-181.5001 2001.0454,-185 2011.0454,-188.5001 2011.0454,-181.5001"/>
</g>
<!-- RegistrationListComponent -->
<g id="node2" class="node">
<title>RegistrationListComponent</title>
<polygon fill="#ffffb3" stroke="#000000" points="4066.5448,-122 3895.4552,-122 3895.4552,-86 4066.5448,-86 4066.5448,-122"/>
<text text-anchor="middle" x="3981" y="-99.8" font-family="Times,serif" font-size="14.00" fill="#000000">RegistrationListComponent</text>
</g>
<!-- RegistrationListComponent&#45;&gt;AppModule -->
<g id="edge2" class="edge">
<title>RegistrationListComponent&#45;&gt;AppModule</title>
<path fill="none" stroke="#000000" d="M3981,-122.0908C3981,-145.1328 3981,-182 3981,-182 3981,-182 2010.7682,-182 2010.7682,-182"/>
<polygon fill="#000000" stroke="#000000" points="2010.7682,-178.5001 2000.7682,-182 2010.7682,-185.5001 2010.7682,-178.5001"/>
</g>
<!-- RegistrationItemComponent -->
<g id="node3" class="node">
<title>RegistrationItemComponent</title>
<polygon fill="#ffffb3" stroke="#000000" points="3877.9227,-122 3702.0773,-122 3702.0773,-86 3877.9227,-86 3877.9227,-122"/>
<text text-anchor="middle" x="3790" y="-99.8" font-family="Times,serif" font-size="14.00" fill="#000000">RegistrationItemComponent</text>
</g>
<!-- RegistrationItemComponent&#45;&gt;AppModule -->
<g id="edge3" class="edge">
<title>RegistrationItemComponent&#45;&gt;AppModule</title>
<path fill="none" stroke="#000000" d="M3790,-122.1554C3790,-144.3519 3790,-179 3790,-179 3790,-179 2010.6832,-179 2010.6832,-179"/>
<polygon fill="#000000" stroke="#000000" points="2010.6833,-175.5001 2000.6832,-179 2010.6832,-182.5001 2010.6833,-175.5001"/>
</g>
<!-- RegistrationFormComponent -->
<g id="node4" class="node">
<title>RegistrationFormComponent</title>
<polygon fill="#ffffb3" stroke="#000000" points="3684.0996,-122 3503.9004,-122 3503.9004,-86 3684.0996,-86 3684.0996,-122"/>
<text text-anchor="middle" x="3594" y="-99.8" font-family="Times,serif" font-size="14.00" fill="#000000">RegistrationFormComponent</text>
</g>
<!-- RegistrationFormComponent&#45;&gt;AppModule -->
<g id="edge4" class="edge">
<title>RegistrationFormComponent&#45;&gt;AppModule</title>
<path fill="none" stroke="#000000" d="M3594,-122.1686C3594,-143.498 3594,-176 3594,-176 3594,-176 2011.059,-176 2011.059,-176"/>
<polygon fill="#000000" stroke="#000000" points="2011.059,-172.5001 2001.059,-176 2011.059,-179.5001 2011.059,-172.5001"/>
</g>
<!-- HeaderComponent -->
<g id="node5" class="node">
<title>HeaderComponent</title>
<polygon fill="#ffffb3" stroke="#000000" points="3485.7437,-122 3364.2563,-122 3364.2563,-86 3485.7437,-86 3485.7437,-122"/>
<text text-anchor="middle" x="3425" y="-99.8" font-family="Times,serif" font-size="14.00" fill="#000000">HeaderComponent</text>
</g>
<!-- HeaderComponent&#45;&gt;AppModule -->
<g id="edge5" class="edge">
<title>HeaderComponent&#45;&gt;AppModule</title>
<path fill="none" stroke="#000000" d="M3425,-122.0267C3425,-142.7672 3425,-174 3425,-174 3425,-174 2010.9025,-174 2010.9025,-174"/>
<polygon fill="#000000" stroke="#000000" points="2010.9025,-170.5001 2000.9025,-174 2010.9024,-177.5001 2010.9025,-170.5001"/>
</g>
<!-- HomeComponent -->
<g id="node6" class="node">
<title>HomeComponent</title>
<polygon fill="#ffffb3" stroke="#000000" points="3345.5451,-122 3230.4549,-122 3230.4549,-86 3345.5451,-86 3345.5451,-122"/>
<text text-anchor="middle" x="3288" y="-99.8" font-family="Times,serif" font-size="14.00" fill="#000000">HomeComponent</text>
</g>
<!-- HomeComponent&#45;&gt;AppModule -->
<g id="edge6" class="edge">
<title>HomeComponent&#45;&gt;AppModule</title>
<path fill="none" stroke="#000000" d="M3288,-122.308C3288,-142.1455 3288,-171 3288,-171 3288,-171 2010.9693,-171 2010.9693,-171"/>
<polygon fill="#000000" stroke="#000000" points="2010.9694,-167.5001 2000.9693,-171 2010.9693,-174.5001 2010.9694,-167.5001"/>
</g>
<!-- VolunteerListComponent -->
<g id="node7" class="node">
<title>VolunteerListComponent</title>
<polygon fill="#ffffb3" stroke="#000000" points="3212.5884,-122 3053.4116,-122 3053.4116,-86 3212.5884,-86 3212.5884,-122"/>
<text text-anchor="middle" x="3133" y="-99.8" font-family="Times,serif" font-size="14.00" fill="#000000">VolunteerListComponent</text>
</g>
<!-- VolunteerListComponent&#45;&gt;AppModule -->
<g id="edge7" class="edge">
<title>VolunteerListComponent&#45;&gt;AppModule</title>
<path fill="none" stroke="#000000" d="M3133,-122.1686C3133,-141.0898 3133,-168 3133,-168 3133,-168 2010.7833,-168 2010.7833,-168"/>
<polygon fill="#000000" stroke="#000000" points="2010.7833,-164.5001 2000.7833,-168 2010.7832,-171.5001 2010.7833,-164.5001"/>
</g>
<!-- VolunteerItemComponent -->
<g id="node8" class="node">
<title>VolunteerItemComponent</title>
<polygon fill="#ffffb3" stroke="#000000" points="3035.4664,-122 2872.5336,-122 2872.5336,-86 3035.4664,-86 3035.4664,-122"/>
<text text-anchor="middle" x="2954" y="-99.8" font-family="Times,serif" font-size="14.00" fill="#000000">VolunteerItemComponent</text>
</g>
<!-- VolunteerItemComponent&#45;&gt;AppModule -->
<g id="edge8" class="edge">
<title>VolunteerItemComponent&#45;&gt;AppModule</title>
<path fill="none" stroke="#000000" d="M2954,-122.302C2954,-140.2699 2954,-165 2954,-165 2954,-165 2010.8022,-165 2010.8022,-165"/>
<polygon fill="#000000" stroke="#000000" points="2010.8023,-161.5001 2000.8022,-165 2010.8022,-168.5001 2010.8023,-161.5001"/>
</g>
<!-- SearchComponent -->
<g id="node9" class="node">
<title>SearchComponent</title>
<polygon fill="#ffffb3" stroke="#000000" points="2854.9201,-122 2735.0799,-122 2735.0799,-86 2854.9201,-86 2854.9201,-122"/>
<text text-anchor="middle" x="2795" y="-99.8" font-family="Times,serif" font-size="14.00" fill="#000000">SearchComponent</text>
</g>
<!-- SearchComponent&#45;&gt;AppModule -->
<g id="edge9" class="edge">
<title>SearchComponent&#45;&gt;AppModule</title>
<path fill="none" stroke="#000000" d="M2795,-122.0225C2795,-139.3734 2795,-163 2795,-163 2795,-163 2010.7434,-163 2010.7434,-163"/>
<polygon fill="#000000" stroke="#000000" points="2010.7434,-159.5001 2000.7434,-163 2010.7434,-166.5001 2010.7434,-159.5001"/>
</g>
<!-- ErrorPageComponent -->
<g id="node10" class="node">
<title>ErrorPageComponent</title>
<polygon fill="#ffffb3" stroke="#000000" points="2717.0786,-122 2578.9214,-122 2578.9214,-86 2717.0786,-86 2717.0786,-122"/>
<text text-anchor="middle" x="2648" y="-99.8" font-family="Times,serif" font-size="14.00" fill="#000000">ErrorPageComponent</text>
</g>
<!-- ErrorPageComponent&#45;&gt;AppModule -->
<g id="edge10" class="edge">
<title>ErrorPageComponent&#45;&gt;AppModule</title>
<path fill="none" stroke="#000000" d="M2648,-122.027C2648,-138.3976 2648,-160 2648,-160 2648,-160 2010.8053,-160 2010.8053,-160"/>
<polygon fill="#000000" stroke="#000000" points="2010.8053,-156.5001 2000.8053,-160 2010.8053,-163.5001 2010.8053,-156.5001"/>
</g>
<!-- VolunteerFilterByNamePipe -->
<g id="node11" class="node">
<title>VolunteerFilterByNamePipe</title>
<polygon fill="#ffffb3" stroke="#000000" points="2560.458,-122 2383.542,-122 2383.542,-86 2560.458,-86 2560.458,-122"/>
<text text-anchor="middle" x="2472" y="-99.8" font-family="Times,serif" font-size="14.00" fill="#000000">VolunteerFilterByNamePipe</text>
</g>
<!-- VolunteerFilterByNamePipe&#45;&gt;AppModule -->
<g id="edge11" class="edge">
<title>VolunteerFilterByNamePipe&#45;&gt;AppModule</title>
<path fill="none" stroke="#000000" d="M2472,-122.2396C2472,-137.5706 2472,-157 2472,-157 2472,-157 2010.9809,-157 2010.9809,-157"/>
<polygon fill="#000000" stroke="#000000" points="2010.981,-153.5001 2000.9809,-157 2010.9809,-160.5001 2010.981,-153.5001"/>
</g>
<!-- RegistrationFilterByVolunteerNamePipe -->
<g id="node12" class="node">
<title>RegistrationFilterByVolunteerNamePipe</title>
<polygon fill="#ffffb3" stroke="#000000" points="2365.8917,-122 2120.1083,-122 2120.1083,-86 2365.8917,-86 2365.8917,-122"/>
<text text-anchor="middle" x="2243" y="-99.8" font-family="Times,serif" font-size="14.00" fill="#000000">RegistrationFilterByVolunteerNamePipe</text>
</g>
<!-- RegistrationFilterByVolunteerNamePipe&#45;&gt;AppModule -->
<g id="edge12" class="edge">
<title>RegistrationFilterByVolunteerNamePipe&#45;&gt;AppModule</title>
<path fill="none" stroke="#000000" d="M2243,-122.0511C2243,-136.373 2243,-154 2243,-154 2243,-154 2010.9052,-154 2010.9052,-154"/>
<polygon fill="#000000" stroke="#000000" points="2010.9052,-150.5001 2000.9052,-154 2010.9051,-157.5001 2010.9052,-150.5001"/>
</g>
<!-- StatisticsComponent -->
<g id="node13" class="node">
<title>StatisticsComponent</title>
<polygon fill="#ffffb3" stroke="#000000" points="2101.8864,-122 1970.1136,-122 1970.1136,-86 2101.8864,-86 2101.8864,-122"/>
<text text-anchor="middle" x="2036" y="-99.8" font-family="Times,serif" font-size="14.00" fill="#000000">StatisticsComponent</text>
</g>
<!-- StatisticsComponent&#45;&gt;AppModule -->
<g id="edge13" class="edge">
<title>StatisticsComponent&#45;&gt;AppModule</title>
<path fill="none" stroke="#000000" d="M1985.4425,-122.1061C1985.4425,-122.1061 1985.4425,-140.991 1985.4425,-140.991"/>
<polygon fill="#000000" stroke="#000000" points="1981.9426,-140.9909 1985.4425,-150.991 1988.9426,-140.991 1981.9426,-140.9909"/>
</g>
<!-- VolunteerComponent -->
<g id="node14" class="node">
<title>VolunteerComponent</title>
<polygon fill="#ffffb3" stroke="#000000" points="1951.8104,-122 1814.1896,-122 1814.1896,-86 1951.8104,-86 1951.8104,-122"/>
<text text-anchor="middle" x="1883" y="-99.8" font-family="Times,serif" font-size="14.00" fill="#000000">VolunteerComponent</text>
</g>
<!-- VolunteerComponent&#45;&gt;AppModule -->
<g id="edge14" class="edge">
<title>VolunteerComponent&#45;&gt;AppModule</title>
<path fill="none" stroke="#000000" d="M1934.4134,-122.1061C1934.4134,-122.1061 1934.4134,-140.991 1934.4134,-140.991"/>
<polygon fill="#000000" stroke="#000000" points="1930.9135,-140.9909 1934.4134,-150.991 1937.9135,-140.991 1930.9135,-140.9909"/>
</g>
<!-- AppComponent  -->
<g id="node24" class="node">
<title>AppComponent </title>
<polygon fill="#80b1d3" stroke="#000000" points="2013.439,-252 1904.561,-252 1904.561,-216 2013.439,-216 2013.439,-252"/>
<text text-anchor="middle" x="1959" y="-229.8" font-family="Times,serif" font-size="14.00" fill="#000000">AppComponent </text>
</g>
<!-- AppModule&#45;&gt;AppComponent  -->
<g id="edge23" class="edge">
<title>AppModule&#45;&gt;AppComponent </title>
<path fill="none" stroke="#000000" stroke-dasharray="1,5" d="M1959,-187.1061C1959,-187.1061 1959,-205.991 1959,-205.991"/>
<polygon fill="#000000" stroke="#000000" points="1955.5001,-205.9909 1959,-215.991 1962.5001,-205.991 1955.5001,-205.9909"/>
</g>
<!-- BrowserModule -->
<g id="node16" class="node">
<title>BrowserModule</title>
<polygon fill="#8dd3c7" stroke="#000000" points="1790.4734,-122 1787.4734,-126 1766.4734,-126 1763.4734,-122 1683.5266,-122 1683.5266,-86 1790.4734,-86 1790.4734,-122"/>
<text text-anchor="middle" x="1737" y="-99.8" font-family="Times,serif" font-size="14.00" fill="#000000">BrowserModule</text>
</g>
<!-- BrowserModule&#45;&gt;AppModule -->
<g id="edge15" class="edge">
<title>BrowserModule&#45;&gt;AppModule</title>
<path fill="none" stroke="#000000" d="M1737,-122.0511C1737,-136.373 1737,-154 1737,-154 1737,-154 1907.2435,-154 1907.2435,-154"/>
<polygon fill="#000000" stroke="#000000" points="1907.2435,-157.5001 1917.2435,-154 1907.2435,-150.5001 1907.2435,-157.5001"/>
</g>
<!-- FormsModule -->
<g id="node17" class="node">
<title>FormsModule</title>
<polygon fill="#8dd3c7" stroke="#000000" points="1665.8288,-122 1662.8288,-126 1641.8288,-126 1638.8288,-122 1570.1712,-122 1570.1712,-86 1665.8288,-86 1665.8288,-122"/>
<text text-anchor="middle" x="1618" y="-99.8" font-family="Times,serif" font-size="14.00" fill="#000000">FormsModule</text>
</g>
<!-- FormsModule&#45;&gt;AppModule -->
<g id="edge16" class="edge">
<title>FormsModule&#45;&gt;AppModule</title>
<path fill="none" stroke="#000000" d="M1618,-122.2396C1618,-137.5706 1618,-157 1618,-157 1618,-157 1907.1867,-157 1907.1867,-157"/>
<polygon fill="#000000" stroke="#000000" points="1907.1867,-160.5001 1917.1867,-157 1907.1867,-153.5001 1907.1867,-160.5001"/>
</g>
<!-- HttpModule -->
<g id="node18" class="node">
<title>HttpModule</title>
<polygon fill="#8dd3c7" stroke="#000000" points="1552.4387,-122 1549.4387,-126 1528.4387,-126 1525.4387,-122 1467.5613,-122 1467.5613,-86 1552.4387,-86 1552.4387,-122"/>
<text text-anchor="middle" x="1510" y="-99.8" font-family="Times,serif" font-size="14.00" fill="#000000">HttpModule</text>
</g>
<!-- HttpModule&#45;&gt;AppModule -->
<g id="edge17" class="edge">
<title>HttpModule&#45;&gt;AppModule</title>
<path fill="none" stroke="#000000" d="M1510,-122.027C1510,-138.3976 1510,-160 1510,-160 1510,-160 1907.1624,-160 1907.1624,-160"/>
<polygon fill="#000000" stroke="#000000" points="1907.1624,-163.5001 1917.1624,-160 1907.1623,-156.5001 1907.1624,-163.5001"/>
</g>
<!-- BrowserAnimationsModule -->
<g id="node19" class="node">
<title>BrowserAnimationsModule</title>
<polygon fill="#8dd3c7" stroke="#000000" points="1450.3019,-122 1447.3019,-126 1426.3019,-126 1423.3019,-122 1277.6981,-122 1277.6981,-86 1450.3019,-86 1450.3019,-122"/>
<text text-anchor="middle" x="1364" y="-99.8" font-family="Times,serif" font-size="14.00" fill="#000000">BrowserAnimationsModule</text>
</g>
<!-- BrowserAnimationsModule&#45;&gt;AppModule -->
<g id="edge18" class="edge">
<title>BrowserAnimationsModule&#45;&gt;AppModule</title>
<path fill="none" stroke="#000000" d="M1364,-122.0225C1364,-139.3734 1364,-163 1364,-163 1364,-163 1907.1608,-163 1907.1608,-163"/>
<polygon fill="#000000" stroke="#000000" points="1907.1608,-166.5001 1917.1608,-163 1907.1607,-159.5001 1907.1608,-166.5001"/>
</g>
<!-- DatepickerModule -->
<g id="node20" class="node">
<title>DatepickerModule</title>
<polygon fill="#8dd3c7" stroke="#000000" points="1259.4566,-122 1256.4566,-126 1235.4566,-126 1232.4566,-122 1138.5434,-122 1138.5434,-86 1259.4566,-86 1259.4566,-122"/>
<text text-anchor="middle" x="1199" y="-99.8" font-family="Times,serif" font-size="14.00" fill="#000000">DatepickerModule</text>
</g>
<!-- DatepickerModule&#45;&gt;AppModule -->
<g id="edge19" class="edge">
<title>DatepickerModule&#45;&gt;AppModule</title>
<path fill="none" stroke="#000000" d="M1199,-122.302C1199,-140.2699 1199,-165 1199,-165 1199,-165 1907.3283,-165 1907.3283,-165"/>
<polygon fill="#000000" stroke="#000000" points="1907.3284,-168.5001 1917.3283,-165 1907.3283,-161.5001 1907.3284,-168.5001"/>
</g>
<!-- AppRoutingModule -->
<g id="node21" class="node">
<title>AppRoutingModule</title>
<polygon fill="#8dd3c7" stroke="#000000" points="1120.2744,-122 1117.2744,-126 1096.2744,-126 1093.2744,-122 991.7256,-122 991.7256,-86 1120.2744,-86 1120.2744,-122"/>
<text text-anchor="middle" x="1056" y="-99.8" font-family="Times,serif" font-size="14.00" fill="#000000">AppRoutingModule</text>
</g>
<!-- AppRoutingModule&#45;&gt;AppModule -->
<g id="edge20" class="edge">
<title>AppRoutingModule&#45;&gt;AppModule</title>
<path fill="none" stroke="#000000" d="M1056,-122.1686C1056,-141.0898 1056,-168 1056,-168 1056,-168 1907.2575,-168 1907.2575,-168"/>
<polygon fill="#000000" stroke="#000000" points="1907.2575,-171.5001 1917.2575,-168 1907.2574,-164.5001 1907.2575,-171.5001"/>
</g>
<!-- ReactiveFormsModule -->
<g id="node22" class="node">
<title>ReactiveFormsModule</title>
<polygon fill="#8dd3c7" stroke="#000000" points="973.3047,-122 970.3047,-126 949.3047,-126 946.3047,-122 828.6953,-122 828.6953,-86 973.3047,-86 973.3047,-122"/>
<text text-anchor="middle" x="901" y="-99.8" font-family="Times,serif" font-size="14.00" fill="#000000">ReactiveFormsModule</text>
</g>
<!-- ReactiveFormsModule&#45;&gt;AppModule -->
<g id="edge21" class="edge">
<title>ReactiveFormsModule&#45;&gt;AppModule</title>
<path fill="none" stroke="#000000" d="M901,-122.308C901,-142.1455 901,-171 901,-171 901,-171 1907.1993,-171 1907.1993,-171"/>
<polygon fill="#000000" stroke="#000000" points="1907.1993,-174.5001 1917.1993,-171 1907.1992,-167.5001 1907.1993,-174.5001"/>
</g>
<!-- ChartsModule -->
<g id="node23" class="node">
<title>ChartsModule</title>
<polygon fill="#8dd3c7" stroke="#000000" points="811.0968,-122 808.0968,-126 787.0968,-126 784.0968,-122 714.9032,-122 714.9032,-86 811.0968,-86 811.0968,-122"/>
<text text-anchor="middle" x="763" y="-99.8" font-family="Times,serif" font-size="14.00" fill="#000000">ChartsModule</text>
</g>
<!-- ChartsModule&#45;&gt;AppModule -->
<g id="edge22" class="edge">
<title>ChartsModule&#45;&gt;AppModule</title>
<path fill="none" stroke="#000000" d="M763,-122.0267C763,-142.7672 763,-174 763,-174 763,-174 1907.135,-174 1907.135,-174"/>
<polygon fill="#000000" stroke="#000000" points="1907.135,-177.5001 1917.135,-174 1907.135,-170.5001 1907.135,-177.5001"/>
</g>
<!-- HelperService -->
<g id="node25" class="node">
<title>HelperService</title>
<ellipse fill="#fdb462" stroke="#000000" cx="625" cy="-104" rx="66.0281" ry="18"/>
<text text-anchor="middle" x="625" y="-99.8" font-family="Times,serif" font-size="14.00" fill="#000000">HelperService</text>
</g>
<!-- HelperService&#45;&gt;AppModule -->
<g id="edge24" class="edge">
<title>HelperService&#45;&gt;AppModule</title>
<path fill="none" stroke="#000000" d="M625,-122.1686C625,-143.498 625,-176 625,-176 625,-176 1907.2437,-176 1907.2437,-176"/>
<polygon fill="#000000" stroke="#000000" points="1907.2438,-179.5001 1917.2437,-176 1907.2437,-172.5001 1907.2438,-179.5001"/>
</g>
<!-- RegistrationService -->
<g id="node26" class="node">
<title>RegistrationService</title>
<ellipse fill="#fdb462" stroke="#000000" cx="454" cy="-104" rx="87.3924" ry="18"/>
<text text-anchor="middle" x="454" y="-99.8" font-family="Times,serif" font-size="14.00" fill="#000000">RegistrationService</text>
</g>
<!-- RegistrationService&#45;&gt;AppModule -->
<g id="edge25" class="edge">
<title>RegistrationService&#45;&gt;AppModule</title>
<path fill="none" stroke="#000000" d="M454,-122.1554C454,-144.3519 454,-179 454,-179 454,-179 1907.1769,-179 1907.1769,-179"/>
<polygon fill="#000000" stroke="#000000" points="1907.1769,-182.5001 1917.1769,-179 1907.1769,-175.5001 1907.1769,-182.5001"/>
</g>
<!-- VolunteerService -->
<g id="node27" class="node">
<title>VolunteerService</title>
<ellipse fill="#fdb462" stroke="#000000" cx="270" cy="-104" rx="78.7086" ry="18"/>
<text text-anchor="middle" x="270" y="-99.8" font-family="Times,serif" font-size="14.00" fill="#000000">VolunteerService</text>
</g>
<!-- VolunteerService&#45;&gt;AppModule -->
<g id="edge26" class="edge">
<title>VolunteerService&#45;&gt;AppModule</title>
<path fill="none" stroke="#000000" d="M270,-122.0908C270,-145.1328 270,-182 270,-182 270,-182 1907.2492,-182 1907.2492,-182"/>
<polygon fill="#000000" stroke="#000000" points="1907.2492,-185.5001 1917.2492,-182 1907.2492,-178.5001 1907.2492,-185.5001"/>
</g>
<!-- StatisticsService -->
<g id="node28" class="node">
<title>StatisticsService</title>
<ellipse fill="#fdb462" stroke="#000000" cx="99" cy="-104" rx="74.7265" ry="18"/>
<text text-anchor="middle" x="99" y="-99.8" font-family="Times,serif" font-size="14.00" fill="#000000">StatisticsService</text>
</g>
<!-- StatisticsService&#45;&gt;AppModule -->
<g id="edge27" class="edge">
<title>StatisticsService&#45;&gt;AppModule</title>
<path fill="none" stroke="#000000" d="M99,-122.3802C99,-146.2785 99,-185 99,-185 99,-185 1907.1011,-185 1907.1011,-185"/>
<polygon fill="#000000" stroke="#000000" points="1907.1011,-188.5001 1917.1011,-185 1907.101,-181.5001 1907.1011,-188.5001"/>
</g>
</g>
</svg>
