<?xml version="1.0" encoding="UTF-8" standalone="no"?>
<!DOCTYPE svg PUBLIC "-//W3C//DTD SVG 1.1//EN"
 "http://www.w3.org/Graphics/SVG/1.1/DTD/svg11.dtd">
<!-- Generated by graphviz version 2.40.1 (20161225.0304)
 -->
<!-- Title: dependencies Pages: 1 -->
<svg width="504pt" height="284pt"
 viewBox="0.00 0.00 504.00 284.00" xmlns="http://www.w3.org/2000/svg" xmlns:xlink="http://www.w3.org/1999/xlink">
<g id="graph0" class="graph" transform="scale(1 1) rotate(0) translate(4 280)">
<title>dependencies</title>
<polygon fill="#ffffff" stroke="transparent" points="-4,4 -4,-280 500,-280 500,4 -4,4"/>
<text text-anchor="start" x="227.0091" y="-42.4" font-family="sans-serif" font-weight="bold" font-size="14.00" fill="#000000">Legend</text>
<polygon fill="#ffffb3" stroke="transparent" points="14,-10 14,-30 34,-30 34,-10 14,-10"/>
<text text-anchor="start" x="37.629" y="-15.4" font-family="sans-serif" font-size="14.00" fill="#000000"> &#160;Declarations</text>
<polygon fill="#8dd3c7" stroke="transparent" points="127,-10 127,-30 147,-30 147,-10 127,-10"/>
<text text-anchor="start" x="150.7251" y="-15.4" font-family="sans-serif" font-size="14.00" fill="#000000"> &#160;Module</text>
<polygon fill="#80b1d3" stroke="transparent" points="213,-10 213,-30 233,-30 233,-10 213,-10"/>
<text text-anchor="start" x="236.7812" y="-15.4" font-family="sans-serif" font-size="14.00" fill="#000000"> &#160;Bootstrap</text>
<polygon fill="#fdb462" stroke="transparent" points="310,-10 310,-30 330,-30 330,-10 310,-10"/>
<text text-anchor="start" x="333.6732" y="-15.4" font-family="sans-serif" font-size="14.00" fill="#000000"> &#160;Providers</text>
<polygon fill="#fb8072" stroke="transparent" points="406,-10 406,-30 426,-30 426,-10 406,-10"/>
<text text-anchor="start" x="429.7258" y="-15.4" font-family="sans-serif" font-size="14.00" fill="#000000"> &#160;Exports</text>
<g id="clust1" class="cluster">
<title>cluster_DatepickerModule</title>
<polygon fill="none" stroke="#000000" stroke-dasharray="1,5" points="36.5,-70 36.5,-268 459.5,-268 459.5,-70 36.5,-70"/>
</g>
<g id="clust2" class="cluster">
<title>cluster_DatepickerModule_declarations</title>
<polygon fill="none" stroke="#000000" points="293.5,-78 293.5,-130 451.5,-130 451.5,-78 293.5,-78"/>
</g>
<g id="clust4" class="cluster">
<title>cluster_DatepickerModule_imports</title>
<polygon fill="none" stroke="#000000" points="44.5,-78 44.5,-130 285.5,-130 285.5,-78 44.5,-78"/>
</g>
<g id="clust5" class="cluster">
<title>cluster_DatepickerModule_exports</title>
<polygon fill="none" stroke="#000000" points="140.5,-208 140.5,-260 302.5,-260 302.5,-208 140.5,-208"/>
</g>
<!-- DatepickerComponent -->
<g id="node1" class="node">
<title>DatepickerComponent</title>
<polygon fill="#ffffb3" stroke="#000000" points="443.7394,-122 301.2606,-122 301.2606,-86 443.7394,-86 443.7394,-122"/>
<text text-anchor="middle" x="372.5" y="-99.8" font-family="Times,serif" font-size="14.00" fill="#000000">DatepickerComponent</text>
</g>
<!-- DatepickerModule -->
<g id="node2" class="node">
<title>DatepickerModule</title>
<polygon fill="#8dd3c7" stroke="#000000" points="281.9566,-187 278.9566,-191 257.9566,-191 254.9566,-187 161.0434,-187 161.0434,-151 281.9566,-151 281.9566,-187"/>
<text text-anchor="middle" x="221.5" y="-164.8" font-family="Times,serif" font-size="14.00" fill="#000000">DatepickerModule</text>
</g>
<!-- DatepickerComponent&#45;&gt;DatepickerModule -->
<g id="edge1" class="edge">
<title>DatepickerComponent&#45;&gt;DatepickerModule</title>
<path fill="none" stroke="#000000" d="M372.5,-122.1061C372.5,-141.3391 372.5,-169 372.5,-169 372.5,-169 292.0474,-169 292.0474,-169"/>
<polygon fill="#000000" stroke="#000000" points="292.0475,-165.5001 282.0474,-169 292.0474,-172.5001 292.0475,-165.5001"/>
</g>
<!-- DatepickerComponent  -->
<g id="node5" class="node">
<title>DatepickerComponent </title>
<polygon fill="#fb8072" stroke="#000000" points="294.7394,-252 148.2606,-252 148.2606,-216 294.7394,-216 294.7394,-252"/>
<text text-anchor="middle" x="221.5" y="-229.8" font-family="Times,serif" font-size="14.00" fill="#000000">DatepickerComponent </text>
</g>
<!-- DatepickerModule&#45;&gt;DatepickerComponent  -->
<g id="edge4" class="edge">
<title>DatepickerModule&#45;&gt;DatepickerComponent </title>
<path fill="none" stroke="#000000" stroke-dasharray="5,2" d="M221.5,-187.1061C221.5,-187.1061 221.5,-205.991 221.5,-205.991"/>
<polygon fill="#000000" stroke="#000000" points="218.0001,-205.9909 221.5,-215.991 225.0001,-205.991 218.0001,-205.9909"/>
</g>
<!-- CommonModule -->
<g id="node3" class="node">
<title>CommonModule</title>
<polygon fill="#8dd3c7" stroke="#000000" points="277.1681,-122 274.1681,-126 253.1681,-126 250.1681,-122 165.8319,-122 165.8319,-86 277.1681,-86 277.1681,-122"/>
<text text-anchor="middle" x="221.5" y="-99.8" font-family="Times,serif" font-size="14.00" fill="#000000">CommonModule</text>
</g>
<!-- CommonModule&#45;&gt;DatepickerModule -->
<g id="edge2" class="edge">
<title>CommonModule&#45;&gt;DatepickerModule</title>
<path fill="none" stroke="#000000" d="M221.5,-122.1061C221.5,-122.1061 221.5,-140.991 221.5,-140.991"/>
<polygon fill="#000000" stroke="#000000" points="218.0001,-140.9909 221.5,-150.991 225.0001,-140.991 218.0001,-140.9909"/>
</g>
<!-- FormsModule -->
<g id="node4" class="node">
<title>FormsModule</title>
<polygon fill="#8dd3c7" stroke="#000000" points="148.3288,-122 145.3288,-126 124.3288,-126 121.3288,-122 52.6712,-122 52.6712,-86 148.3288,-86 148.3288,-122"/>
<text text-anchor="middle" x="100.5" y="-99.8" font-family="Times,serif" font-size="14.00" fill="#000000">FormsModule</text>
</g>
<!-- FormsModule&#45;&gt;DatepickerModule -->
<g id="edge3" class="edge">
<title>FormsModule&#45;&gt;DatepickerModule</title>
<path fill="none" stroke="#000000" d="M100.5,-122.1061C100.5,-141.3391 100.5,-169 100.5,-169 100.5,-169 151,-169 151,-169"/>
<polygon fill="#000000" stroke="#000000" points="151,-172.5001 161,-169 151,-165.5001 151,-172.5001"/>
</g>
</g>
</svg>
